<?xml version="1.0" encoding="UTF-8"?>
<!-- Generated by Pixelmator Pro 3.6.14 -->
<svg width="500" height="500" viewBox="0 0 500 500" xmlns="http://www.w3.org/2000/svg">
    <g id="Group">
        <path id="Path" fill="#ffffff" stroke="none" d="M 238.178986 0.039063 C 237.123871 0.117249 233.685028 0.351685 230.558823 0.586182 C 185.34584 3.907776 140.836258 20.242279 103.595154 47.244995 C 81.594368 63.149658 62.133644 82.766724 46.307152 104.96286 C 10.980852 154.474396 -5.001954 215.474792 1.4068 276.084412 C 6.838609 327.588898 27.667057 375.224701 61.899178 414.615082 C 67.018372 420.476746 78.819847 432.278229 85.111366 437.788208 C 141.539658 487.299713 216.451736 508.753418 290.738556 496.678375 C 331.965607 489.957001 371.199677 472.684631 404.533051 446.580688 C 418.991791 435.248138 433.880432 420.437683 445.760071 405.627197 C 515.123108 318.874573 518.483765 195.427917 453.888214 104.96286 C 419.148102 56.311035 368.386078 21.609985 310.863617 7.268494 C 298.085175 4.064087 286.440002 2.110199 272.176636 0.742462 C 266.314972 0.195374 242.633835 -0.312622 238.178986 0.039063 Z M 246.971481 21.453674 L 246.971481 29.425568 L 244.157867 29.660004 C 236.654953 30.207092 227.706146 30.715149 227.588898 30.5979 C 227.432587 30.402496 225.791336 14.966766 225.947647 14.849548 C 226.064865 14.73233 235.951538 14.107056 245.720993 13.559998 L 246.971481 13.481842 L 246.971481 21.453674 Z M 266.901154 14.30249 C 270.652588 14.536926 273.856995 14.849548 273.974213 14.966766 C 274.169586 15.201263 272.840973 30.324341 272.567413 30.5979 C 272.489258 30.715149 263.345062 30.16803 256.076599 29.660004 L 253.223923 29.425568 L 253.223923 21.453674 L 253.223923 13.442749 L 256.66275 13.677216 C 258.538513 13.794434 263.149658 14.067993 266.901154 14.30249 Z M 225.713181 22.860504 C 226.143021 27.04184 226.416565 30.5979 226.299347 30.715149 C 226.182098 30.832336 223.681122 31.262207 220.789368 31.613922 C 217.897614 31.965607 213.169205 32.708069 210.277451 33.255188 C 207.385696 33.802277 204.923798 34.075836 204.767487 33.919495 C 204.376709 33.450562 201.484955 18.991821 201.719421 18.757324 C 202.032043 18.40564 211.098083 16.764343 216.490829 16.021881 C 219.18718 15.670197 221.649078 15.318512 221.9617 15.240326 C 222.274338 15.16217 223.094955 15.16217 223.7202 15.16217 L 224.892532 15.240326 L 225.713181 22.860504 Z M 285.072296 16.217285 C 290.699493 17.037903 298.16333 18.444702 298.43689 18.718262 C 298.632294 18.913635 295.623291 33.724121 295.310669 34.036713 C 295.232513 34.114899 292.77063 33.763184 289.917938 33.255188 C 287.026184 32.708069 282.297791 31.965607 279.406006 31.613922 C 276.514252 31.262207 274.013306 30.832336 273.896057 30.715149 C 273.739746 30.5979 273.93515 27.315338 274.36499 23.446655 C 274.755768 19.577972 275.06839 16.100037 275.06839 15.670197 C 275.107483 14.849548 275.928101 14.888641 285.072296 16.217285 Z M 200.664322 19.812408 C 201.289566 22.547882 203.595154 33.685028 203.595154 34.036713 C 203.595154 34.27121 200.898788 35.13092 197.655334 35.951538 C 194.372803 36.733124 189.605316 38.022644 187.065262 38.80423 C 184.564285 39.546692 182.415009 40.093811 182.375931 40.015625 C 182.336853 39.9375 181.242676 36.694 179.992188 32.825317 C 178.741684 28.956635 177.608444 25.595947 177.530289 25.361481 C 177.373978 24.892548 183.78273 22.899567 193.239548 20.476746 C 200.234467 18.718262 200.390778 18.718262 200.664322 19.812408 Z M 307.542023 20.67215 C 315.044952 22.586945 321.883575 24.579926 322.274323 24.970673 C 322.547882 25.20517 318.210236 39.2341 317.70224 39.781158 C 317.545929 39.9375 315.43573 39.507629 312.973816 38.765167 C 310.511932 38.022644 305.822601 36.733124 302.579132 35.912476 C 299.101196 35.091827 296.60022 34.27121 296.60022 33.99765 C 296.60022 33.411499 299.257507 20.125031 299.531067 19.421661 C 299.765533 18.718262 300.039093 18.796387 307.542023 20.67215 Z M 178.937088 32.669006 C 180.265717 36.654938 181.320831 40.093811 181.320831 40.289185 C 181.320831 40.484558 180.031265 41.070709 178.468155 41.539642 C 176.944122 42.047668 172.332947 43.806183 168.26886 45.408356 C 164.243851 47.010559 160.84407 48.261017 160.805008 48.182892 C 160.687775 48.065643 156.93631 39.66394 155.099655 35.482605 L 154.39624 33.841339 L 156.232895 32.981628 C 160.414215 31.105896 176.2798 25.126984 176.475189 25.361481 C 176.514267 25.361481 177.608444 28.683075 178.937088 32.669006 Z M 336.654938 30.011719 C 339.66394 31.184052 342.946442 32.551788 343.923401 32.981628 L 345.76004 33.802277 L 342.63385 40.719025 C 340.914398 44.548645 339.429443 47.792114 339.273132 47.948425 C 339.116852 48.104706 335.83432 46.932373 331.965607 45.408356 C 328.096924 43.845245 323.563904 42.164917 321.883575 41.617828 C 320.242279 41.070709 318.874573 40.445496 318.874573 40.250122 C 318.874573 39.9375 322.782349 27.276276 323.36853 25.713165 C 323.563904 25.166077 327.862427 26.572876 336.654938 30.011719 Z M 266.901154 30.715149 C 288.511139 32.278229 311.293457 37.553711 332.356384 45.955475 C 339.742065 48.886292 355.021515 56.428284 361.664703 60.414215 C 378.429047 70.418152 391.676453 80.773743 405.470886 94.529114 C 422.743256 111.801483 435.404449 129.269226 446.229004 150.644775 C 467.604523 192.809692 474.716675 240.015625 466.783875 287.182495 C 455.138733 356.428284 409.691284 416.803436 346.0336 447.674866 C 308.909729 465.650635 268.26886 472.80188 227.11998 468.542389 C 152.989456 460.844086 87.299728 415.513855 53.771004 348.769043 C 18.288395 278.233673 23.212191 194.607269 66.666664 128.722137 C 74.75576 116.412659 83.548264 105.744446 94.724503 94.529114 C 112.543961 76.748749 129.933563 64.204773 152.40329 53.028534 C 180.81282 38.843292 209.339584 31.652985 243.06369 30.128967 C 247.440399 29.933563 260.453308 30.246185 266.901154 30.715149 Z M 156.701843 41.422455 C 158.499405 45.408356 159.867142 48.72998 159.788986 48.808136 C 159.710831 48.886292 157.444321 50.019531 154.747955 51.309113 C 152.051575 52.559601 148.22197 54.513489 146.228989 55.607635 L 142.633835 57.561554 L 140.758102 54.39624 C 134.583832 43.923431 134.583832 43.923431 135.443527 43.298157 C 136.068771 42.829224 153.067596 34.193024 153.380219 34.193024 C 153.419312 34.193024 154.943344 37.436493 156.701843 41.422455 Z M 356.819061 39.116852 C 360.804993 41.148895 364.361053 43.024628 364.751862 43.298157 C 365.416199 43.806183 365.220795 44.275116 361.664703 50.449371 C 359.554535 54.083618 357.796021 57.131683 357.717865 57.209839 C 357.522491 57.444305 340.406403 48.886292 340.36734 48.573639 C 340.36734 48.417328 341.461517 45.877289 342.751068 42.907379 C 344.079712 39.9375 345.486542 36.772186 345.877289 35.873383 L 346.580688 34.232147 L 348.065643 34.818298 C 348.886292 35.169983 352.83316 37.084808 356.819061 39.116852 Z M 132.004684 51.621704 C 133.372421 53.96637 135.091827 56.975403 135.83432 58.304016 L 137.202026 60.687775 L 132.981628 63.305969 C 130.676041 64.751862 127.041817 67.174652 124.892532 68.659637 C 122.782333 70.144592 120.906601 71.23877 120.75029 71.043396 C 119.929665 70.144592 111.762413 58.772949 111.762413 58.49942 C 111.801491 57.874176 128.448608 46.971497 129.11293 47.205933 C 129.347397 47.284119 130.636963 49.277039 132.004684 51.621704 Z M 376.162567 50.058624 C 379.914032 52.442352 387.729584 57.717865 388.39389 58.264954 C 388.511139 58.382172 380.422028 69.871063 379.445099 71.043396 C 379.288788 71.23877 377.413025 70.144592 375.302856 68.659637 C 373.153564 67.174652 369.519348 64.751862 367.213745 63.305969 C 364.908173 61.860107 363.03241 60.531464 363.110596 60.33609 C 363.579529 58.968323 370.730774 47.088684 371.082458 47.088684 C 371.316925 47.088684 373.622528 48.417328 376.162567 50.058624 Z M 115.435715 65.455261 C 117.936691 68.894104 119.968742 71.785858 119.968742 71.863983 C 119.968742 71.981232 118.444702 73.23175 116.56897 74.716705 C 112.192261 78.077393 104.650261 84.368896 103.985931 85.150452 C 103.673309 85.502136 103.321609 85.775696 103.165298 85.775696 C 102.774521 85.775696 92.614304 74.443146 92.614304 74.013275 C 92.614304 73.388062 109.847595 59.20282 110.629158 59.20282 C 110.785461 59.20282 112.934746 62.016418 115.435715 65.455261 Z M 394.880829 63.188751 C 400.351715 67.448212 407.581085 73.583435 407.581085 73.93515 C 407.581085 74.091461 400.351715 82.375916 397.772552 85.150452 C 397.108246 85.892914 397.03009 85.814789 394.216492 83.391937 C 390.660431 80.226624 388.003143 78.077393 383.665497 74.716705 C 381.750671 73.23175 380.226654 71.942169 380.226654 71.824921 C 380.226654 71.316925 389.058228 59.241882 389.409912 59.241882 C 389.644409 59.20282 392.106293 61.000366 394.880829 63.188751 Z M 96.600235 80.187561 C 99.257523 83.157471 101.56311 85.814789 101.719429 86.049225 C 101.91481 86.361847 99.2966 89.292694 94.294647 94.294617 L 86.557251 102.071136 L 80.930054 96.951935 C 77.803833 94.099243 75.224693 91.598267 75.146538 91.402893 C 74.990234 90.973053 90.855804 74.833923 91.441971 74.833923 C 91.598282 74.833923 93.90387 77.256744 96.600235 80.187561 Z M 417.116058 82.883942 C 421.53186 87.338806 425.166077 91.090271 425.166077 91.207489 C 425.166077 91.481049 414.849548 101.016022 413.950775 101.524048 C 413.59906 101.758484 411.137177 99.531067 405.705383 94.099243 L 397.967957 86.361847 L 403.087158 80.617432 C 405.861664 77.452148 408.36264 74.833923 408.597107 74.833923 C 408.870636 74.833923 412.661194 78.46814 417.116058 82.883942 Z M 79.914024 97.342712 C 82.923012 100.039093 85.541229 102.383759 85.73661 102.579132 C 85.892929 102.774506 84.876907 104.25946 83.4701 105.861664 C 80.30481 109.49588 73.036339 118.601013 72.801872 119.26535 C 72.684639 119.538879 72.411095 119.773346 72.215706 119.773346 C 71.785851 119.773346 59.906212 111.254395 59.554512 110.746399 C 59.163738 110.082062 73.270805 92.418915 74.169594 92.418915 C 74.325912 92.418915 76.905037 94.646362 79.914024 97.342712 Z M 430.16803 96.912842 C 432.161011 99.2966 435.404449 103.282532 437.358368 105.822571 C 440.289185 109.691315 440.79718 110.550995 440.36734 110.941772 C 439.155914 112.03598 428.292328 119.773346 427.940582 119.773346 C 427.745209 119.773346 427.510742 119.538879 427.393524 119.26535 C 427.159058 118.601013 419.890564 109.49588 416.725281 105.861664 L 414.107086 102.852692 L 417.585022 99.687378 C 419.499817 97.967987 422.039856 95.623322 423.212189 94.490051 C 424.384521 93.356781 425.63504 92.458008 425.947662 92.536133 C 426.260254 92.575226 428.136017 94.568176 430.16803 96.912842 Z M 64.830009 115.943726 C 68.190704 118.327454 71.082458 120.398621 71.238762 120.554901 C 71.434158 120.711212 70.339973 122.586975 68.894096 124.697144 C 67.409142 126.846436 64.98632 130.441559 63.540447 132.747162 C 62.055492 135.091827 60.805 136.96759 60.726845 136.96759 C 60.570538 136.96759 47.635796 129.542786 47.32317 129.308319 C 47.245018 129.230164 47.362251 128.683075 47.635796 128.096893 C 48.221962 126.807343 58.304024 111.567017 58.577568 111.567017 C 58.655724 111.567017 61.469326 113.520905 64.830009 115.943726 Z M 446.932404 119.26535 C 452.676819 127.979675 453.106689 128.722137 452.637756 129.152008 C 452.481445 129.347412 449.511505 131.105927 446.072693 133.059784 C 442.63385 135.052765 439.703033 136.733093 439.585785 136.811279 C 439.429474 136.889404 438.10083 135.091827 436.654938 132.747162 C 435.209076 130.441559 432.786224 126.846436 431.30127 124.697144 C 429.855408 122.586975 428.722168 120.750305 428.839386 120.633057 C 429.620941 119.890564 441.07074 111.60611 441.383362 111.60611 C 441.617828 111.567017 444.118805 115.044922 446.932404 119.26535 Z M 50.722939 138.374359 C 54.318092 140.445465 57.366161 142.203979 57.522469 142.282135 C 57.639706 142.360291 56.662758 144.509583 55.29504 147.010559 C 53.927315 149.550629 51.973427 153.419312 50.957405 155.607666 C 49.941383 157.835083 49.003517 159.63266 48.847206 159.63266 C 48.456429 159.63266 35.052753 153.731934 34.701057 153.419312 C 34.232124 153.028503 43.37632 134.622925 44.040638 134.622925 C 44.118797 134.622925 47.127785 136.303253 50.722939 138.374359 Z M 461.039459 143.532623 C 463.462311 148.339172 465.416168 152.520508 465.338013 152.872223 C 465.259857 153.341125 454.396271 158.577576 451.778046 159.437286 C 451.230957 159.593597 450.722961 158.851105 449.238007 155.646729 C 448.221985 153.419312 446.268066 149.511505 444.861298 146.932404 C 443.454468 144.353271 442.477509 142.203979 442.63385 142.125824 C 442.790161 142.086761 445.760071 140.36734 449.198883 138.335297 C 452.637756 136.342316 455.724884 134.70105 456.037506 134.740112 C 456.389191 134.779205 458.460358 138.491608 461.039459 143.532623 Z M 48.378273 160.648682 C 48.456429 160.687775 47.20594 164.048431 45.603752 168.112549 C 44.001564 172.137573 42.282139 176.748718 41.774132 178.272766 C 41.266121 179.835876 40.640877 181.125427 40.40641 181.125427 C 40.171944 181.125427 36.694019 180.070343 32.708088 178.780762 L 25.439627 176.436096 L 27.198126 171.434174 C 28.956625 166.471283 31.692066 159.476349 33.216103 156.037537 L 33.997654 154.23996 L 41.148884 157.405243 C 45.056664 159.124664 48.339195 160.609619 48.378273 160.648682 Z M 467.995331 158.421265 C 470.066437 163.266907 474.404053 175.029297 474.404053 175.810883 C 474.404053 176.20163 472.059387 177.139526 467.252838 178.741699 C 463.345062 180.070343 459.945313 181.125427 459.749878 181.125427 C 459.515442 181.125427 458.929291 179.835876 458.421234 178.272766 C 457.913269 176.748718 456.193817 172.137573 454.591644 168.034393 C 452.989441 163.970306 451.817108 160.570557 452.012512 160.492371 C 452.168823 160.453308 455.334106 159.007416 458.968353 157.287994 C 462.641663 155.607666 465.767853 154.279022 465.924164 154.318085 C 466.119598 154.357147 467.057434 156.193817 467.995331 158.421265 Z M 476.670593 182.766693 C 478.858948 190.23056 481.320831 200.273529 480.969116 200.273529 C 480.890991 200.273529 477.569366 200.976959 473.622498 201.83667 C 469.675659 202.69635 466.197723 203.39978 465.963287 203.39978 C 465.72879 203.39978 464.908173 200.820648 464.087524 197.538086 C 463.306 194.33371 462.016418 189.644379 461.273956 187.143402 C 460.531464 184.642426 460.023438 182.493164 460.140686 182.336853 C 460.33606 182.141449 474.169617 177.3349 474.833923 177.256744 C 474.951141 177.217651 475.810852 179.718628 476.670593 182.766693 Z M 32.786243 179.796783 C 36.57679 181.008209 39.820244 182.141449 39.976551 182.29776 C 40.171944 182.454071 39.663929 184.681519 38.882378 187.221588 C 38.100822 189.80069 36.85033 194.490021 36.068775 197.73349 C 35.287224 200.937866 34.622898 203.634216 34.622898 203.634216 C 34.544746 203.790527 19.577961 200.42984 19.343494 200.195374 C 18.679173 199.57016 24.618992 177.608429 25.478703 177.608429 C 25.713169 177.608429 28.995701 178.585388 32.786243 179.796783 Z M 482.180511 205.431824 C 483.391968 211.723328 485.072296 223.642029 484.83783 224.267303 C 484.681488 224.658081 475.49826 225.869476 469.753815 226.221161 C 469.323975 226.260254 469.011353 225.048828 468.503326 221.023834 C 468.112518 218.171173 467.330994 213.3255 466.783875 210.316528 C 466.236816 207.307526 465.924164 204.728394 466.080505 204.572113 C 466.236816 204.454865 469.558411 203.673309 473.427124 202.852692 C 477.295807 202.032043 480.539276 201.289551 480.617432 201.211395 C 481.16449 200.7034 481.438049 201.484955 482.180511 205.431824 Z M 26.885502 203.009003 C 30.871435 203.868683 34.193043 204.650238 34.271198 204.728394 C 34.349354 204.806549 33.95858 207.307526 33.411488 210.277466 C 32.864399 213.247345 32.121922 217.975769 31.770224 220.750305 C 31.418522 223.563904 31.027746 225.986694 30.910513 226.143005 C 30.676044 226.377502 15.592029 224.970673 15.279407 224.658081 C 14.966784 224.345459 17.233294 208.831573 18.36655 203.477905 C 18.640093 202.383728 18.991795 201.445862 19.226259 201.445862 C 19.42165 201.445862 22.860493 202.149292 26.885502 203.009003 Z M 23.837437 226.690125 C 27.588902 227.041809 30.754202 227.393494 30.832355 227.47168 C 30.910513 227.510742 30.754202 229.894501 30.519733 232.747162 C 30.285269 235.56076 30.089878 239.077759 30.089878 240.523651 C 30.089878 241.969513 29.972647 243.962494 29.855413 244.9785 L 29.581869 246.776077 L 21.68816 246.776077 L 13.755374 246.776077 L 13.911684 243.33725 C 14.263385 235.83432 14.927707 226.260254 15.084018 225.986694 C 15.20125 225.791321 15.670184 225.752258 16.139116 225.869476 C 16.608051 225.947632 20.085972 226.338409 23.837437 226.690125 Z M 485.345825 226.690125 C 485.345825 227.237183 485.502136 230.16803 485.69751 233.216095 C 485.932007 236.26416 486.166473 240.562714 486.283691 242.751068 L 486.479095 246.776077 L 478.546326 246.776077 L 470.613495 246.776077 L 470.339996 244.9785 C 470.222748 243.962494 470.105499 241.969513 470.105499 240.523651 C 470.105499 239.077759 469.910126 235.56076 469.675659 232.747162 C 469.441162 229.894501 469.284851 227.510742 469.363037 227.432587 C 469.519348 227.315338 482.415009 225.791321 484.290741 225.713165 C 485.189545 225.674103 485.345825 225.830414 485.345825 226.690125 Z M 29.855413 254.826111 C 29.972647 255.842133 30.089878 257.835083 30.089878 259.280975 C 30.089878 260.726837 30.285269 264.243835 30.519733 267.057434 C 30.754202 269.910126 30.910513 272.293854 30.832355 272.372009 C 30.636967 272.52832 15.20125 274.208679 15.044939 274.052368 C 14.927707 273.93512 14.224306 263.03244 13.911684 256.428284 L 13.755374 253.028519 L 21.68816 253.028519 L 29.581869 253.028519 L 29.855413 254.826111 Z M 486.322784 256.428284 C 485.658447 267.9953 485.26767 273.583435 485.033234 273.778809 C 484.876923 273.896057 481.281738 273.661591 476.983185 273.23175 L 469.206726 272.411102 L 469.480286 269.871033 C 469.597504 268.425171 469.792908 265.181702 469.910126 262.6026 C 470.027344 260.023438 470.222748 256.819061 470.339996 255.45134 L 470.574432 253.028519 L 478.546326 253.028519 L 486.518158 253.028519 L 486.322784 256.428284 Z M 31.731146 278.819824 C 32.082844 281.672546 32.864399 286.479095 33.411488 289.488098 C 33.95858 292.49707 34.271198 295.076202 34.114887 295.232513 C 33.645958 295.623291 19.187183 298.515045 18.913637 298.280579 C 18.327471 297.694397 15.005862 276.592407 15.357562 275.576416 C 15.435718 275.263794 18.093004 274.833923 22.89957 274.286804 C 26.963657 273.817902 30.44158 273.466187 30.676044 273.544342 C 30.871435 273.583435 31.340368 275.928101 31.731146 278.819824 Z M 478.311829 274.36499 C 481.86792 274.716675 484.83783 275.06839 484.915985 275.146545 C 485.306763 275.537323 481.86792 297.694397 481.281738 298.241516 C 481.125427 298.43689 466.197723 295.349731 465.924164 295.076202 C 465.846039 294.998047 466.236816 292.575226 466.744812 289.644409 C 467.291931 286.713562 468.034393 282.063293 468.386078 279.32785 C 469.167664 272.958191 469.050415 273.270813 470.574432 273.50528 C 471.277832 273.622498 474.755768 274.013306 478.311829 274.36499 Z M 36.146935 302.344666 C 36.967564 305.627197 38.218052 310.316528 38.960533 312.778442 C 39.703007 315.201233 40.171944 317.350525 39.976551 317.506836 C 39.585777 317.897644 26.338413 322.196167 25.595936 322.196167 C 25.244236 322.196167 24.697149 320.984741 24.071903 318.952698 C 22.547871 314.067993 19.030872 299.921844 19.265337 299.648315 C 19.538881 299.413818 32.629936 296.522095 33.841343 296.443909 C 34.622898 296.404846 34.818291 296.951935 36.146935 302.344666 Z M 472.372009 297.577179 C 475.302826 298.202423 478.390015 298.827667 479.210632 298.984009 C 480.031281 299.101196 480.812805 299.452911 480.890991 299.687378 C 481.203613 300.507996 475.732697 321.375549 475.029327 322.078949 C 474.79483 322.313416 460.726837 317.936707 460.218842 317.506836 C 460.023438 317.350525 460.492371 315.201233 461.234833 312.778442 C 461.977356 310.316528 463.227814 305.627197 464.048462 302.344666 C 465.29895 297.225494 465.611542 296.404846 466.275879 296.404846 C 466.70575 296.404846 469.441162 296.912842 472.372009 297.577179 Z M 467.760834 321.062927 C 471.316925 322.157104 474.325928 323.173126 474.482239 323.329407 C 474.990204 323.79834 466.783875 345.252045 466.041412 345.252045 C 465.611542 345.252045 452.40329 339.429474 452.012512 339.038696 C 451.856171 338.882385 452.676819 336.498657 453.849152 333.685028 C 454.982422 330.910522 456.66275 326.533813 457.561523 323.954651 C 458.460358 321.375549 459.280975 319.030884 459.359131 318.796387 C 459.476349 318.444702 459.789001 318.40564 460.414215 318.679169 C 460.922211 318.874573 464.204773 319.929657 467.760834 321.062927 Z M 41.774132 321.53186 C 42.282139 323.055878 44.001564 327.667053 45.603752 331.692078 C 47.20594 335.756165 48.456429 339.116821 48.378273 339.155945 C 47.987495 339.429474 34.896442 345.212952 34.466587 345.3302 C 33.841343 345.486511 31.809299 340.836273 28.096914 330.793274 C 26.299335 325.869476 25.595936 323.524811 25.908558 323.3685 C 28.018757 322.586975 39.781166 318.757324 40.250095 318.718262 C 40.640877 318.679169 41.148884 319.617035 41.774132 321.53186 Z M 51.660805 345.525604 C 53.106682 348.495483 55.06057 352.364197 56.037514 354.122681 L 57.796013 357.36615 L 54.200859 359.437256 C 43.845253 365.494324 44.118797 365.377075 43.493549 364.556458 C 42.751076 363.579529 34.349354 346.737 34.505665 346.541626 C 34.779209 346.307129 48.300117 340.210999 48.651817 340.210999 C 48.886284 340.171936 50.254002 342.594788 51.660805 345.525604 Z M 458.538483 343.141846 C 462.211792 344.783142 465.338013 346.229004 465.533417 346.385315 C 465.806976 346.658844 457.913269 362.954285 456.740936 364.517395 C 456.23288 365.220795 455.80304 365.025391 449.316132 361.273926 L 442.438446 357.327087 L 444.19693 354.122681 C 445.134827 352.364197 447.088715 348.495483 448.534576 345.525604 C 449.941376 342.594788 451.27002 340.171936 451.465424 340.171936 C 451.660797 340.171936 454.826111 341.50061 458.538483 343.141846 Z M 66.119583 370.847992 C 68.972252 375.146545 71.316917 378.780762 71.316917 378.937073 C 71.316917 379.249695 59.12466 388.237579 58.694801 388.237579 C 58.538494 388.237579 56.27198 385.033203 53.692848 381.086365 C 47.479485 371.707703 47.088707 371.082458 47.55764 370.613525 C 48.18288 369.988281 60.336071 362.915222 60.648693 362.993347 C 60.805 362.993347 63.266903 366.549438 66.119583 370.847992 Z M 446.189911 366.588501 C 449.785065 368.659637 452.794067 370.457214 452.911316 370.53537 C 453.184845 370.808899 451.621735 373.388031 446.697906 380.812805 C 444.19693 384.56427 442.047699 387.807739 441.891357 388.003113 C 441.735046 388.237579 433.020721 382.336853 428.800293 379.093384 C 428.683075 379.015259 439.390381 362.837036 439.546692 362.837036 C 439.624847 362.837036 442.63385 364.517395 446.189911 366.588501 Z M 435.990601 385.424011 C 438.608826 387.299744 440.758118 388.980072 440.79718 389.136383 C 440.79718 389.839783 427.47168 406.486908 426.299347 407.190308 C 425.986725 407.385681 423.09494 404.962891 414.654175 397.381775 C 414.224304 396.991028 414.575989 396.404846 416.647125 394.021118 C 419.538879 390.699493 424.736206 384.251648 426.690125 381.516235 L 428.018768 379.640503 L 429.620941 380.851898 C 430.519745 381.516235 433.372406 383.548248 435.990601 385.424011 Z M 73.661583 381.711609 C 75.381012 384.13443 80.617432 390.699493 83.548264 394.021118 L 86.088318 396.912842 L 85.150444 397.811646 C 82.141457 400.7034 74.521294 407.385681 74.247749 407.385681 C 73.50528 407.385681 59.59359 390.269653 59.59359 389.37085 C 59.59359 388.940979 71.512306 380.070343 72.098473 380.070343 C 72.332947 380.070343 72.997261 380.773743 73.661583 381.711609 Z M 422.938629 406.017975 C 424.150055 407.151245 425.166077 408.206329 425.166077 408.440796 C 425.166077 408.987885 409.261444 424.775299 408.714325 424.775299 C 408.479858 424.775299 405.939819 422.235229 403.126221 419.109009 L 397.928864 413.442749 L 405.783508 405.588135 L 413.638153 397.73349 L 417.155151 400.859711 C 419.069946 402.579132 421.688171 404.923798 422.938629 406.017975 Z M 94.568192 405.705353 L 102.266502 413.442749 L 97.147324 419.109009 C 94.333725 422.235229 91.832748 424.775299 91.520126 424.775299 C 91.012115 424.775299 75.029312 409.026978 75.029312 408.518951 C 75.029312 408.206329 86.283699 398.007019 86.596329 398.007019 C 86.713562 398.007019 90.308716 401.484955 94.568192 405.705353 Z M 106.135208 416.56897 C 108.909729 419.030884 117.702232 426.06488 119.499809 427.315369 C 120.320435 427.90152 120.281357 427.979675 115.748337 434.232117 C 113.24736 437.710052 111.019928 440.562714 110.863617 440.562714 C 109.964836 440.640869 92.809685 426.651031 92.809685 425.869476 C 92.809685 425.517792 102.774521 414.028931 103.087143 414.028931 C 103.165298 414.028931 104.53302 415.16217 106.135208 416.56897 Z M 402.500977 419.851501 C 405.275513 422.977722 407.581085 425.63501 407.581085 425.791321 C 407.581085 426.377502 390.894867 440.054718 389.644409 440.523651 C 389.253601 440.640869 380.226654 428.409546 380.226654 427.784302 C 380.226654 427.588898 380.461121 427.315369 380.73465 427.19812 C 381.438049 426.924591 392.457977 418.093018 394.880829 415.86557 C 395.974976 414.888641 396.951935 414.107056 397.108246 414.146149 C 397.303619 414.185242 399.687347 416.764343 402.500977 419.851501 Z M 128.956619 433.724121 C 133.137939 436.498627 136.733093 438.882385 136.88942 439.038696 C 137.123871 439.23407 130.519745 451.348175 129.46463 452.715912 C 129.191086 453.028534 126.533806 451.426331 119.18718 446.541626 C 115.201256 443.884338 111.879639 441.656891 111.840561 441.578735 C 111.645172 441.383362 120.906601 428.487701 121.141075 428.604919 C 121.258308 428.644012 124.775307 430.949585 128.956619 433.724121 Z M 383.899963 434.896454 C 386.40094 438.296204 388.432983 441.187958 388.432983 441.344269 C 388.432983 441.578735 375.77179 450.058624 372.645569 451.934357 C 371.160614 452.83313 371.121552 452.83313 370.574463 452.090668 C 369.871033 451.152802 363.46228 440.015625 363.345032 439.507629 C 363.227844 439.116852 378.585358 428.565857 379.132477 428.644012 C 379.288788 428.683075 381.438049 431.457611 383.899963 434.896454 Z M 154.474396 448.30011 C 157.405228 449.746002 159.828049 451.035553 159.828049 451.230957 C 159.828049 451.621735 153.966385 464.947235 153.6147 465.338013 C 153.341156 465.611572 136.928497 457.639709 135.443527 456.506439 C 134.70105 455.959351 134.779205 455.80304 137.123871 451.69989 C 138.491592 449.355225 140.289169 446.268066 141.109818 444.822205 L 142.633835 442.203979 L 145.877304 443.962494 C 147.635803 444.939423 151.504501 446.893311 154.474396 448.30011 Z M 361.703766 449.237976 C 365.29895 455.52951 365.494324 455.959351 364.830017 456.467377 C 363.892151 457.131683 351.856201 463.266907 348.886292 464.556458 L 346.697937 465.533417 L 343.454498 458.343109 C 341.695984 454.357178 340.328247 451.074646 340.406403 450.99649 C 340.484558 450.918335 343.923401 449.198914 348.065643 447.16687 C 352.168823 445.095734 355.959351 443.141846 356.428284 442.829224 C 356.897217 442.477539 357.444305 442.282135 357.600616 442.360291 C 357.756927 442.477539 359.593597 445.564667 361.703766 449.237976 Z M 167.760849 454.200867 C 171.199692 455.568573 175.654541 457.287994 177.725677 457.991394 C 179.835861 458.733887 181.477142 459.437286 181.477142 459.63266 C 181.398987 459.945282 177.178589 473.153564 176.826874 474.091431 C 176.709656 474.443146 175.459167 474.169586 172.254791 473.036346 C 164.790939 470.379059 154.747955 466.236816 154.747955 465.806946 C 154.747955 465.416168 160.296997 452.794067 160.84407 451.856201 C 160.961319 451.660797 161.195786 451.543579 161.313019 451.621735 C 161.46933 451.69989 164.361069 452.872223 167.760849 454.200867 Z M 342.438446 458.460327 C 344.118774 462.289948 345.525604 465.572479 345.525604 465.767883 C 345.525604 466.393127 325.713196 474.208679 324.150055 474.208679 C 323.79837 474.208679 322.821411 471.746765 321.258301 467.057434 C 319.929657 463.149658 318.874573 459.749908 318.874573 459.554504 C 318.874573 459.320038 320.39859 458.655731 322.313385 458.030487 C 324.189117 457.405243 328.604919 455.724884 332.161011 454.279022 C 335.717072 452.83313 338.80423 451.621735 338.999603 451.582642 C 339.23407 451.582642 340.758087 454.6698 342.438446 458.460327 Z M 186.75264 460.883148 C 189.839783 461.860107 197.694412 463.892151 202.540054 464.986328 C 203.165298 465.142639 203.595154 465.494324 203.595154 465.885101 C 203.595154 466.979279 200.742477 480.265717 200.42984 480.617432 C 199.882767 481.242676 177.803833 475.341919 177.803833 474.599457 C 177.803833 473.896057 182.532242 459.749908 182.766693 459.749908 C 182.883942 459.749908 184.681519 460.257904 186.75264 460.883148 Z M 320.203217 466.979279 C 321.492767 470.926147 322.547882 474.325897 322.547882 474.482208 C 322.586945 474.638519 321.10199 475.263763 319.26535 475.889008 C 315.00589 477.256744 300.117249 481.008209 299.882782 480.73465 C 299.609222 480.461121 296.483002 465.572479 296.678375 465.377106 C 296.795624 465.29895 300 464.43924 303.868713 463.46228 C 307.698334 462.524414 312.192261 461.313019 313.794434 460.76593 C 315.396637 460.257904 316.99881 459.828064 317.311432 459.788971 C 317.741302 459.788971 318.522888 461.742859 320.203217 466.979279 Z M 214.068008 467.174683 C 217.78038 467.799927 222.157089 468.425171 223.759277 468.581482 L 226.729187 468.855011 L 226.49472 470.457214 C 226.377502 471.355988 225.98671 474.872986 225.63501 478.311829 C 225.283325 481.750671 224.93161 484.642426 224.892532 484.720581 C 224.501755 485.111359 202.305588 481.633453 201.758499 481.086365 C 201.56311 480.930054 202.735443 474.990234 204.259476 468.190704 L 204.845642 465.533417 L 206.09613 465.806946 C 206.760452 465.924194 210.355606 466.549438 214.068008 467.174683 Z M 297.069153 472.645569 C 297.850708 476.397034 298.515045 479.874939 298.554138 480.343872 C 298.554138 481.047272 298.241486 481.242676 296.522095 481.59436 C 287.885895 483.313782 275.928101 484.994141 275.49823 484.486115 C 274.990234 483.899963 273.661591 469.050415 274.091431 468.933167 C 274.325897 468.855011 277.3349 468.425171 280.773743 467.956238 C 284.212585 467.487305 288.628357 466.783905 290.543182 466.393127 C 292.49707 466.00235 294.411865 465.72879 294.841736 465.72879 C 295.506042 465.806946 295.779602 466.70575 297.069153 472.645569 Z M 239.937485 469.910126 C 243.68895 470.105499 246.81517 470.300903 246.893326 470.300903 C 246.932388 470.300903 246.971481 473.896057 246.971481 478.311829 L 246.971481 486.283691 L 243.571701 486.088318 C 232.747177 485.502136 226.416565 485.033203 226.221176 484.83783 C 226.064865 484.681519 226.338409 481.086365 226.768265 476.787811 L 227.588898 469.050415 L 230.363419 469.284882 C 231.848373 469.4021 236.186005 469.714722 239.937485 469.910126 Z M 272.762817 469.4021 C 272.762817 469.597504 273.114502 472.958191 273.544342 476.944122 C 273.974213 480.930054 274.325897 484.368896 274.325897 484.603363 C 274.325897 484.994141 272.52832 485.150452 256.272003 486.12738 L 253.223923 486.283691 L 253.223923 478.350922 L 253.223923 470.379059 L 256.076599 470.144592 C 259.945282 469.83197 269.089508 469.284882 271.121521 469.206726 C 272.020325 469.167633 272.762817 469.245789 272.762817 469.4021 Z"/>
        <path id="path1" fill="#ffffff" stroke="none" d="M 225.869492 38.686981 C 225.869492 39.077789 226.260254 39.273163 227.041824 39.273163 C 227.979675 39.273163 228.214157 39.468536 228.526764 40.523651 C 228.722168 41.22702 231.223145 51.230957 234.036728 62.719818 L 239.23407 83.626434 L 235.56076 99.062134 L 231.887466 114.497833 L 229.660019 114.615082 C 228.018753 114.693237 227.432587 114.888641 227.432587 115.279419 C 227.432587 115.748352 228.292313 115.86557 232.121918 115.86557 C 235.951538 115.86557 236.811249 115.748352 236.811249 115.279419 C 236.811249 114.888641 236.225082 114.693237 234.740143 114.615082 L 232.629929 114.497833 L 236.029694 100.312653 C 237.905426 92.536133 239.507629 86.049225 239.624847 85.9711 C 239.742081 85.853851 241.383347 92.0672 243.259079 99.726471 C 245.173889 107.424774 246.776077 113.950775 246.893326 114.185211 C 247.010544 114.536957 246.658844 114.693237 245.838211 114.693237 C 245.017578 114.693237 244.626816 114.888641 244.626816 115.279419 C 244.626816 115.787415 245.3302 115.86557 249.394302 115.787415 C 252.598663 115.70929 254.200851 115.513855 254.279007 115.201233 C 254.396255 114.927704 253.927322 114.693237 253.18483 114.615082 L 251.895279 114.497833 L 247.088699 95.349762 C 244.470505 84.798767 242.28215 75.810852 242.28215 75.341919 C 242.28215 74.872986 243.767105 68.190674 245.603745 60.492401 C 247.440399 52.794037 249.316147 44.861267 249.785065 42.868317 L 250.644791 39.273163 L 254.083633 39.273163 L 257.522461 39.273163 L 257.522461 76.983185 L 257.522461 114.693237 L 256.350128 114.693237 C 255.568588 114.693237 255.177811 114.888641 255.177811 115.279419 C 255.177811 115.787415 256.506439 115.86557 264.751862 115.86557 C 272.997253 115.86557 274.325897 115.787415 274.325897 115.279419 C 274.325897 114.888641 273.93515 114.693237 273.153564 114.693237 L 271.981232 114.693237 L 271.981232 76.983185 L 271.981232 39.273163 L 273.153564 39.273163 C 273.93515 39.273163 274.325897 39.077789 274.325897 38.686981 C 274.325897 38.178986 272.450165 38.10083 259.867126 38.10083 C 247.284103 38.10083 245.408356 38.178986 245.408356 38.686981 C 245.408356 39.155914 245.916367 39.273163 247.59671 39.273163 C 249.667831 39.273163 249.785065 39.312225 249.589676 40.132874 C 249.355209 41.070709 242.360306 70.26181 241.891357 72.293854 L 241.617828 73.466187 L 241.187973 71.903107 C 240.953506 71.043396 238.999619 63.345062 236.889404 54.826111 L 233.020706 39.312225 L 234.193039 39.194977 C 234.857361 39.116852 235.443527 38.843292 235.56076 38.569733 C 235.678009 38.218048 234.544739 38.10083 230.793274 38.10083 C 226.690109 38.10083 225.869492 38.178986 225.869492 38.686981 Z M 267.291901 76.983185 L 267.291901 114.693237 L 264.751862 114.693237 L 262.211823 114.693237 L 262.211823 76.983185 L 262.211823 39.273163 L 264.751862 39.273163 L 267.291901 39.273163 L 267.291901 76.983185 Z"/>
        <path id="path2" fill="#000000" stroke="none" d="M 249.237991 238.061737 C 249.706909 238.139893 250.48848 238.139893 250.99649 238.061737 C 251.465424 237.983582 251.074646 237.905426 250.097687 237.905426 C 249.120743 237.905426 248.72998 237.983582 249.237991 238.061737 Z"/>
        <path id="path3" fill="#000000" stroke="none" d="M 243.610794 239.820251 C 241.774139 241.07074 239.155914 244.079712 239.155914 244.939438 C 239.155914 245.173889 239.663925 244.587723 240.250092 243.610779 C 241.578735 241.578735 242.28215 240.914429 244.626816 239.585785 C 245.603745 239.038666 246.189911 238.569763 245.95546 238.569763 C 245.6819 238.569763 244.665878 239.155914 243.610794 239.820251 Z"/>
        <path id="path4" fill="#000000" stroke="none" d="M 238.10083 250.097687 C 238.10083 250.957397 238.178986 251.27002 238.257141 250.762009 C 238.335297 250.293091 238.335297 249.589676 238.257141 249.198898 C 238.139893 248.847198 238.061737 249.237991 238.10083 250.097687 Z"/>
        <path id="path5" fill="#000000" stroke="none" d="M 239.155914 254.826111 C 239.155914 255.412277 241.187973 258.147705 242.125839 258.890198 C 242.516617 259.20282 242.399368 258.92926 241.852295 258.304016 C 241.266129 257.639709 240.445496 256.50647 239.976547 255.763977 C 239.546692 255.0215 239.155914 254.591644 239.155914 254.826111 Z"/>
        <path id="path6" fill="#000000" stroke="none" d="M 260.33606 255.529495 C 260.101593 256.037506 259.359131 257.131683 258.655731 257.952332 C 257.561554 259.241882 257.522461 259.320038 258.421265 258.49942 C 259.63266 257.444336 261.234863 255.060562 260.961334 254.747955 C 260.844086 254.6698 260.570526 255.0215 260.33606 255.529495 Z"/>
        <path id="path7" fill="#000000" stroke="none" d="M 244.509567 260.492371 C 244.783127 260.76593 245.095734 260.883179 245.212982 260.76593 C 245.3302 260.648682 245.134827 260.414215 244.744034 260.296997 C 244.19696 260.0625 244.157867 260.101624 244.509567 260.492371 Z"/>
        <path id="path8" fill="#000000" stroke="none" d="M 255.177811 260.453308 C 254.826111 260.687775 254.787018 260.844086 255.060562 260.844086 C 255.295029 260.844086 255.646729 260.648682 255.763977 260.453308 C 256.076599 259.984375 255.920288 259.984375 255.177811 260.453308 Z"/>
        <path id="path9" fill="#ffffff" stroke="none" d="M 152.989456 61.391174 C 148.690903 63.892151 145.017578 66.041443 144.822189 66.236816 C 144.665894 66.43219 144.626816 66.744812 144.744034 66.979279 C 144.939423 67.252838 145.564667 67.057465 146.541611 66.43219 C 147.401321 65.885132 148.22197 65.455261 148.417343 65.455261 C 148.651825 65.455261 153.028534 79.640472 158.06955 96.912842 C 158.616653 98.86676 158.57756 98.788574 147.51857 87.53418 C 141.383347 81.281769 135.873383 75.615479 135.287216 74.872986 L 134.232117 73.544373 L 135.13092 72.958191 C 136.068771 72.332947 136.26416 71.707672 135.482605 71.707672 C 135.091827 71.707672 127.979675 75.693634 127.432587 76.20163 C 127.393509 76.279816 127.432587 76.514252 127.588905 76.748749 C 127.745216 77.061371 128.175064 76.983185 128.878464 76.6315 L 129.972641 76.084412 L 145.760071 92.458008 L 161.586548 108.870667 L 166.197723 124.189117 C 169.714722 135.951538 170.691681 139.585785 170.300888 139.820251 C 170.027359 139.976532 169.128555 140.523651 168.347015 140.992584 C 167.409149 141.539673 166.979294 142.008606 167.174683 142.321198 C 167.370056 142.672943 168.659637 142.125824 171.473221 140.445465 C 175.107468 138.335297 176.201645 137.358337 175.029312 137.358337 C 174.794846 137.358337 173.896042 137.749115 173.075424 138.218048 C 172.254791 138.686981 171.512314 138.999634 171.434158 138.882385 C 171.356003 138.804199 169.48027 132.551788 167.252838 125.048828 C 165.064484 117.506836 163.149673 111.098083 163.03244 110.785461 C 162.837036 110.277466 166.041428 113.481812 180.539276 128.487701 L 183.86087 131.926514 L 182.923019 132.629944 C 182.415009 133.020721 182.102371 133.528717 182.258682 133.763184 C 182.493164 134.153961 184.329819 133.177032 190.269638 129.581848 C 190.58226 129.386475 190.699493 129.03479 190.504105 128.800323 C 190.308716 128.448639 189.996094 128.487701 189.253616 128.995697 C 188.276672 129.620972 188.237595 129.581848 187.182495 128.526764 C 186.596329 127.90152 180.265717 121.375519 173.114502 113.989838 L 160.101608 100.586151 L 155.255966 84.486145 C 152.598679 75.615479 150.175858 67.56546 149.902313 66.588501 L 149.355225 64.790924 L 152.246979 63.110596 C 153.927322 62.133636 155.334122 61.586548 155.52951 61.781952 C 155.685822 61.977325 164.204773 76.6315 174.443146 94.372803 L 193.044159 126.611969 L 192.067215 127.19812 C 191.012115 127.823364 190.699493 128.995697 191.676437 128.60495 C 191.989059 128.487701 193.942947 127.393494 196.014069 126.182098 C 198.475967 124.736206 199.609222 123.837433 199.374756 123.602966 C 199.140289 123.3685 198.671341 123.3685 198.124268 123.681122 C 197.655334 123.954681 197.108246 123.993744 196.951935 123.79837 C 196.756546 123.642059 188.511139 109.417755 178.585373 92.223511 C 168.659637 75.029297 160.296997 60.531464 159.945297 60.023468 C 159.320038 59.046509 159.320038 59.046509 161.000381 58.030487 C 161.391174 57.79599 161.46933 57.561554 161.195786 57.287994 C 160.922226 57.014465 158.264954 58.343109 152.989456 61.391174 Z"/>
        <path id="path10" fill="#ffffff" stroke="none" d="M 351.074646 64.321991 C 350.918335 64.595551 350.957397 64.86911 351.191895 64.947235 C 351.426331 65.025421 351.895264 65.29895 352.246979 65.572479 C 352.872223 66.002319 351.113708 69.206726 334.583801 97.889801 C 324.462677 115.396637 315.982788 130.089874 315.670166 130.480652 C 315.16217 131.184052 315.084015 131.184052 314.107056 130.558807 C 313.247375 130.011719 313.091064 129.972656 312.89566 130.480652 C 312.583038 131.223114 320.672119 135.990631 321.10199 135.326294 C 321.219238 135.052765 320.984741 134.622925 320.515808 134.310303 C 320.046906 133.99765 319.656097 133.56778 319.656097 133.411469 C 319.656097 133.216095 328.018738 118.522858 338.257111 100.781555 C 352.559601 76.045319 357.053558 68.581482 357.522491 68.69873 C 357.874176 68.815948 358.460327 69.011322 358.851135 69.167633 C 359.280975 69.363007 359.515411 69.284882 359.515411 68.933167 C 359.515411 68.620544 357.796021 67.409149 355.724884 66.236816 C 351.113708 63.618591 351.426331 63.73584 351.074646 64.321991 Z"/>
        <path id="path11" fill="#ffffff" stroke="none" d="M 71.74678 135.248138 C 69.323959 139.351318 69.128563 139.898407 69.87104 139.898407 C 70.144585 139.898407 70.769829 139.195007 71.238762 138.374359 C 71.707703 137.553741 72.254791 136.850342 72.411095 136.889404 C 72.723717 136.928467 97.694412 160.414246 97.694412 160.648682 C 97.694412 160.687775 97.108246 160.570557 96.443924 160.375122 C 95.740524 160.179749 88.31575 158.06958 79.914024 155.685791 C 71.551384 153.302063 64.517387 151.191895 64.361084 151.035583 C 64.165688 150.879272 64.243843 150.371246 64.517387 149.902313 C 64.908165 149.316132 64.908165 148.964447 64.595543 148.651794 C 64.282921 148.339172 63.540447 149.394287 61.781948 152.442352 C 59.984371 155.568604 59.476357 156.701813 59.867134 156.93631 C 60.179756 157.131683 60.53146 156.93631 60.88316 156.271973 C 61.273933 155.52948 61.625633 155.334106 62.250877 155.490417 C 62.719814 155.607666 72.606491 158.421265 84.173508 161.742889 C 99.726456 166.236786 105.509964 168.034393 106.252441 168.6987 C 108.089096 170.379059 128.565842 189.80069 128.565842 189.917938 C 128.565842 189.957001 128.096924 190.855774 127.549828 191.832733 C 126.84642 193.083252 126.651031 193.825714 126.885498 194.060181 C 127.15905 194.33371 128.096924 193.044159 129.738174 190.308716 C 131.418518 187.416962 132.043762 186.010162 131.770218 185.736603 C 131.457596 185.423981 131.027756 185.853851 130.246185 187.143402 C 129.660019 188.120361 129.034775 188.901917 128.878464 188.862854 C 128.409531 188.667419 107.463852 168.620575 107.737396 168.620575 C 108.206337 168.620575 135.756165 176.514282 135.990616 176.709656 C 136.068771 176.787781 135.91246 177.217651 135.638916 177.686615 C 135.287216 178.233673 135.248154 178.585388 135.56076 178.89801 C 135.795242 179.132446 136.029694 179.249695 136.107849 179.132446 C 136.576782 178.624451 140.679947 171.23877 140.679947 170.926117 C 140.679947 170.222748 139.546692 170.574432 139.312241 171.355988 C 139.194992 171.785858 138.80423 172.137573 138.53067 172.137573 C 138.218048 172.137573 129.347397 169.675659 118.79641 166.70575 L 99.609222 161.273956 L 92.301674 154.279022 C 88.276672 150.449402 82.219612 144.704956 78.858932 141.50061 L 72.684639 135.717072 L 73.661583 134.075806 C 74.208672 133.13797 74.638535 132.200073 74.638535 131.965637 C 74.638535 130.793304 73.739746 131.809296 71.74678 135.248138 Z"/>
        <path id="path12" fill="#ffffff" stroke="none" d="M 428.175079 136.420471 C 428.057831 136.53772 428.214142 137.084778 428.565857 137.592804 C 428.917542 138.139923 429.073853 138.647919 428.956604 138.804199 C 428.800293 138.921448 414.146149 147.440399 396.365784 157.717834 L 364.009369 176.397034 L 363.423218 175.420074 C 362.876129 174.560364 361.860077 174.130524 361.860077 174.794861 C 361.860077 175.420074 371.160614 191.051208 371.629547 191.20752 C 372.137543 191.402893 372.059387 190.777649 371.473236 189.331757 C 371.277863 188.862854 378.819855 184.368896 403.751465 169.949219 L 436.303223 151.152771 L 436.889404 152.090668 C 437.436493 152.950378 438.452515 153.341125 438.452515 152.676819 C 438.452515 152.168793 429.191101 136.420471 428.800293 136.303253 C 428.604919 136.225098 428.33139 136.26416 428.175079 136.420471 Z M 432.86441 144.939423 L 434.075806 147.049622 L 401.445862 165.924194 C 375.810883 180.695587 368.737793 184.642426 368.425171 184.212585 C 367.291901 182.493164 366.510345 180.617432 366.86203 180.265717 C 367.213745 179.914032 431.066833 142.907379 431.418518 142.868317 C 431.535767 142.868317 432.161011 143.806152 432.86441 144.939423 Z"/>
        <path id="path13" fill="#ffffff" stroke="none" d="M 38.296211 235.248138 C 38.296211 239.038666 38.413441 240.171936 38.804218 240.054718 C 39.077763 239.937469 39.312229 239.038666 39.390385 237.866333 C 39.468544 236.733093 39.585777 235.83432 39.663929 235.83432 C 39.742088 235.83432 43.220005 236.654938 47.362251 237.631897 C 66.197731 242.125824 70.613518 243.180939 71.824928 243.454468 C 72.528328 243.610779 73.036339 243.806152 72.958183 243.923401 C 72.840958 244.040649 65.259872 245.994522 56.115669 248.339188 L 39.507622 252.559601 L 39.390385 251.348175 C 39.195 249.316147 38.413441 249.667831 38.218052 251.895279 C 37.866352 255.568588 38.374367 269.480286 38.8433 269.323975 C 39.077763 269.245789 39.312229 268.620544 39.390385 267.956238 L 39.507622 266.70575 L 76.983192 266.70575 L 114.458771 266.70575 L 114.576004 267.956238 C 114.654167 268.620544 114.927704 269.245789 115.201256 269.363037 C 115.552948 269.480286 115.670181 268.346985 115.670181 264.556458 C 115.670181 260.76593 115.552948 259.63266 115.201256 259.749908 C 114.927704 259.867126 114.654167 260.414215 114.576004 260.961304 L 114.458771 262.016418 L 76.944115 262.016418 L 39.468544 262.016418 L 39.468544 259.671753 L 39.468544 257.36615 L 40.953499 256.975372 C 41.73505 256.740906 51.660805 254.279007 62.993359 251.426331 L 83.626419 246.307159 L 99.140289 249.980469 L 114.693245 253.692841 L 114.810471 255.881195 C 114.888626 257.522461 115.084015 258.108643 115.474792 258.108643 C 115.943733 258.108643 116.060959 257.248932 116.060959 253.419312 C 116.060959 249.51152 115.982803 248.72998 115.474792 248.72998 C 115.044937 248.72998 114.888626 249.198898 114.888626 250.683853 C 114.888626 252.364197 114.7714 252.637756 114.146156 252.637756 C 113.716293 252.637756 109.105118 251.582657 103.868698 250.332169 C 98.671356 249.081665 92.692459 247.635803 90.660416 247.166855 C 88.628372 246.658844 86.713562 246.150833 86.400932 245.994522 C 86.010162 245.799149 113.520912 238.569763 114.693245 238.569763 C 114.810471 238.569763 114.888626 239.077759 114.888626 239.742096 C 114.888626 240.523651 115.084015 240.914429 115.474792 240.914429 C 115.982803 240.914429 116.060959 240.210999 115.982803 236.146942 C 115.904655 232.942566 115.709259 231.340363 115.396637 231.262207 C 115.123093 231.144989 114.888626 231.613922 114.810471 232.356384 L 114.693245 233.606873 L 95.545135 238.413452 C 85.033218 241.07074 76.006256 243.259094 75.498245 243.259094 C 75.029312 243.259094 68.776871 241.852295 61.625633 240.171936 C 54.513481 238.491608 46.580696 236.615845 44.079716 236.029694 L 39.507622 234.935516 L 39.390385 232.786255 C 39.312229 231.496674 39.077763 230.558807 38.804218 230.441589 C 38.413441 230.324341 38.296211 231.457611 38.296211 235.248138 Z"/>
        <path id="path14" fill="#ffffff" stroke="none" d="M 384.251648 249.785065 C 384.29071 260.804993 384.447021 264.126617 384.83783 264.282928 C 385.150452 264.361084 385.306763 264.009369 385.306763 263.227844 L 385.306763 262.016418 L 423.016815 262.016418 L 460.726837 262.016418 L 460.726837 263.188751 C 460.726837 263.970306 460.922211 264.361084 461.313019 264.361084 C 461.821014 264.361084 461.89917 262.485352 461.89917 249.902313 C 461.89917 237.319275 461.821014 235.443512 461.313019 235.443512 C 460.922211 235.443512 460.726837 235.83432 460.726837 236.615845 L 460.726837 237.788177 L 423.016815 237.788177 L 385.306763 237.788177 L 385.306763 236.615845 C 385.306763 235.83432 385.111359 235.443512 384.720581 235.443512 C 384.212585 235.443512 384.173523 237.319275 384.251648 249.785065 Z M 460.726837 245.017578 L 460.726837 247.557648 L 423.016815 247.557648 L 385.306763 247.557648 L 385.306763 245.291138 C 385.306763 244.040649 385.423981 242.868317 385.580292 242.751068 C 385.69754 242.594757 402.696381 242.477539 423.290375 242.477539 L 460.726837 242.477539 L 460.726837 245.017578 Z M 460.726837 254.787018 L 460.726837 257.327087 L 423.134033 257.248932 L 385.502167 257.131683 L 385.384918 254.6698 L 385.26767 252.246979 L 423.016815 252.246979 L 460.726837 252.246979 L 460.726837 254.787018 Z"/>
        <path id="path15" fill="#ffffff" stroke="none" d="M 374.443146 302.930847 C 363.892151 321.10199 356.779999 333.528717 356.779999 333.724121 C 356.779999 334.271179 357.991394 333.841339 358.343079 333.137939 C 358.577576 332.708099 358.890198 332.356384 359.085571 332.356384 C 359.3591 332.356384 423.563873 369.323975 423.954681 369.714722 C 424.071899 369.83197 423.954681 370.261841 423.681122 370.652588 C 423.407562 371.082458 423.212189 371.590454 423.212189 371.824951 C 423.212189 373.466187 425.361481 370.105499 433.645935 355.685822 C 440.484558 343.845276 443.024597 339.116821 442.712006 338.804199 C 442.399384 338.53067 442.20401 338.53067 442.086761 338.843323 C 442.008575 339.077759 441.735046 339.585785 441.461517 339.976563 C 440.992554 340.562714 438.022675 338.96051 408.909729 322.157104 C 391.324707 312.03595 376.670563 303.477905 376.397034 303.243469 C 375.967194 302.852661 375.967194 302.579132 376.318878 301.875732 C 376.6315 301.289551 376.6315 300.859711 376.397034 300.625244 C 376.123505 300.351685 375.49823 301.13324 374.443146 302.930847 Z M 405.822571 325.713165 C 423.446686 335.873383 438.022675 344.314178 438.218048 344.509583 C 438.569763 344.822205 436.576782 348.769043 436.068787 348.769043 C 435.795227 348.769043 374.443146 313.481812 371.746796 311.801483 L 370.887054 311.254395 L 372.137543 309.144196 C 372.840942 307.971863 373.466217 307.073059 373.583405 307.151245 C 373.700653 307.190308 388.198517 315.552979 405.822571 325.713165 Z M 400.429871 333.763184 C 417.819458 343.76709 432.395477 352.207886 432.903473 352.55957 L 433.802246 353.106689 L 432.629913 355.138733 C 431.965607 356.271973 431.262207 357.131683 431.066833 357.09259 C 430.636993 356.975403 366.901154 320.24231 366.43222 319.851501 C 366.236816 319.656128 366.354034 319.069946 366.705719 318.522858 C 367.057465 317.975769 367.604553 317.076965 367.917175 316.529907 C 368.26886 315.982819 368.620544 315.552979 368.6987 315.552979 C 368.815948 315.552979 383.079315 323.759277 400.429871 333.763184 Z M 396.951935 342.868286 L 428.995697 361.391174 L 427.862457 363.384155 C 427.237183 364.478333 426.572876 365.377075 426.338409 365.377075 C 425.63504 365.377075 361.508392 328.253235 361.46933 327.823364 C 361.46933 327.627991 362.016388 326.611969 362.641663 325.595947 C 363.46228 324.267303 363.970306 323.79834 364.321991 324.032837 C 364.634613 324.189148 379.288788 332.669006 396.951935 342.868286 Z"/>
        <path id="path16" fill="#ffffff" stroke="none" d="M 119.577957 303.438843 C 114.693245 304.923828 111.840561 305.783508 89.292686 312.426727 C 82.649475 314.380615 71.27784 317.741333 64.087532 319.890564 C 56.897224 322.039856 50.722939 323.876526 50.371239 323.993744 C 49.863228 324.110962 49.550606 323.681152 49.003517 322.196167 C 48.61274 321.141052 48.065651 320.24231 47.792107 320.24231 C 47.518562 320.24231 47.284096 320.39859 47.284096 320.593994 C 47.284096 321.414612 50.371239 329.03479 50.762016 329.152008 C 51.348183 329.347412 51.309105 328.292297 50.605705 326.611969 C 50.293083 325.830383 50.058617 325.127014 50.136772 325.048828 C 50.214928 325.009766 54.747948 323.602966 60.218834 321.9617 C 65.68972 320.359497 75.967178 317.272369 83.040253 315.16217 C 90.152405 313.052002 100.781555 309.886658 106.682297 308.128174 C 112.583038 306.36969 117.936691 304.80658 118.561935 304.572083 C 119.18718 304.376709 119.734268 304.259491 119.812424 304.337646 C 119.929665 304.454865 67.995308 354.787018 67.56546 354.943359 C 67.409142 355.021484 67.174675 354.708862 67.018372 354.278992 C 66.783897 353.458374 65.650642 353.106689 65.650642 353.810089 C 65.650642 354.005493 66.236809 355.177795 66.940208 356.467346 C 69.128563 360.296997 84.48613 386.869873 84.642433 387.026184 C 84.681511 387.065247 84.915985 387.026184 85.150444 386.869873 C 85.463074 386.713562 85.384918 386.283691 84.994141 385.502136 L 84.407974 384.407959 L 111.684258 368.659637 C 126.651031 360.023438 141.305191 351.582642 144.196945 349.86322 L 149.472443 346.815155 L 150.254013 347.792114 C 151.152802 348.847198 151.621719 349.042603 151.621719 348.261047 C 151.621719 348.026581 148.456421 342.321228 144.626816 335.677979 C 138.413437 324.931641 136.733093 322.430664 137.084793 324.384521 C 137.123871 324.697144 137.202026 325.205139 137.280182 325.556854 C 137.31926 325.986694 127.862442 331.613892 104.923798 344.861267 C 87.10434 355.177795 72.411095 363.46228 72.254791 363.305969 C 72.13755 363.149658 71.551384 362.211792 71.004295 361.234863 L 69.988281 359.437256 L 76.514267 353.028503 C 80.109421 349.472473 92.848763 337.123871 104.845642 325.556854 C 116.842514 313.989838 126.572884 304.415771 126.533806 304.259491 C 126.45565 304.142242 126.143021 303.556091 125.869484 302.930847 C 125.556854 302.344666 125.126999 301.875732 124.892532 301.914825 C 124.658073 301.914825 122.27433 302.618225 119.577957 303.438843 Z M 141.266113 332.121948 C 141.891357 333.29425 142.321228 334.349365 142.243073 334.42749 C 141.930435 334.740143 78.311844 371.395081 77.725677 371.629547 C 77.139511 371.864014 74.872993 368.542419 75.146538 367.799927 C 75.224693 367.487305 139.234085 330.207123 139.898407 330.050812 C 140.015625 330.011719 140.640869 330.949585 141.266113 332.121948 Z M 146.150833 340.601807 C 146.815155 341.695984 147.323166 342.63385 147.24501 342.711975 C 147.166855 342.751099 132.903473 351.035583 115.474792 361.078552 C 98.08519 371.121521 83.431023 379.562317 82.962097 379.874939 C 82.141457 380.382965 82.024231 380.343872 80.890976 378.390015 C 80.265732 377.256744 79.718643 376.240723 79.718643 376.123474 C 79.718643 376.006256 82.415009 374.404053 85.697533 372.52832 C 88.940994 370.652588 103.517006 362.250885 118.014847 353.888245 C 132.512695 345.486511 144.509583 338.608826 144.665894 338.608826 C 144.783112 338.608826 145.447433 339.507629 146.150833 340.601807 Z"/>
        <path id="path17" fill="#ffffff" stroke="none" d="M 150.957397 381.86792 C 139.390396 394.099243 127.198128 406.916748 123.915588 410.433777 L 117.897614 416.764343 L 116.21727 415.396637 C 115.123093 414.497864 114.458771 414.185242 114.263382 414.458771 C 114.146156 414.693237 114.341537 415.201233 114.732323 415.552948 C 115.16217 415.943726 116.647125 417.350525 118.132088 418.718262 C 120.00782 420.476746 120.906601 421.062927 121.180153 420.789368 C 121.492767 420.476746 121.141075 419.929657 120.00782 418.874573 L 118.444702 417.350525 L 143.532639 390.894897 C 157.327072 376.357941 168.620544 364.478333 168.659637 364.517395 C 168.776855 364.595551 148.847214 434.466583 148.690903 434.661987 C 148.612747 434.740112 148.22197 434.583832 147.753021 434.27121 C 147.205933 433.919495 146.815155 433.919495 146.541611 434.193054 C 146.268082 434.466583 149.863235 436.733093 158.343109 441.617828 C 165.025391 445.447449 170.769836 448.651825 171.043365 448.72998 C 171.981232 448.964447 171.551376 447.753021 170.535355 447.284088 L 169.558426 446.854248 L 170.300888 445.564667 C 170.730759 444.90036 179.210632 430.246185 189.136383 413.051971 C 199.062134 395.857758 207.229385 381.750671 207.307541 381.633453 C 207.424774 381.555298 207.932785 381.789764 208.440796 382.141479 C 209.105118 382.57132 209.495895 382.610413 209.691284 382.336853 C 209.808517 382.102386 209.76944 381.789764 209.613129 381.59436 C 209.105118 381.16452 194.138336 372.567413 193.708481 372.489258 C 192.84877 372.332947 193.083237 373.388031 193.98201 373.856995 L 194.958969 374.36499 L 176.201645 406.79953 C 164.478317 427.080872 157.248917 439.23407 156.897217 439.195007 C 156.584595 439.155914 155.568573 438.686981 154.630707 438.139893 L 152.911301 437.123871 L 157.678787 420.39859 C 160.33606 411.215332 165.142639 394.450958 168.386093 383.157471 C 171.668625 371.864014 174.36499 362.329041 174.404053 361.938232 C 174.443146 361.547485 173.974197 360.922241 173.270813 360.492371 L 172.020325 359.710815 L 150.957397 381.86792 Z M 201.211411 377.921082 C 202.188339 378.507233 203.087143 379.015259 203.165298 379.093384 C 203.204376 379.132477 194.802658 393.90387 184.447037 411.840576 L 165.611557 444.47049 L 163.774902 443.454468 C 162.797974 442.907379 161.82103 442.321228 161.664703 442.164917 C 161.430237 441.969513 194.646347 383.70459 198.358734 377.76474 C 199.062134 376.670593 199.062134 376.670593 201.211411 377.921082 Z"/>
        <path id="path18" fill="#ffffff" stroke="none" d="M 315.826477 366.783905 C 315.00589 367.330994 314.615082 367.838989 314.73233 368.26886 C 314.810455 368.620544 315.357574 370.379059 315.904663 372.215698 C 316.412659 374.052368 319.382568 383.978119 322.430634 394.294647 C 327.080902 410.121155 335.951569 439.898407 336.694031 442.282135 C 336.850342 442.829224 336.459564 443.141846 334.896423 443.806183 C 333.802277 444.236023 332.981628 444.783112 333.020721 444.978516 C 333.216095 445.564667 333.528717 445.486511 338.022675 443.728027 C 340.953522 442.594757 342.203979 441.891357 342.047668 441.539673 C 341.891357 441.148895 341.461517 441.187958 339.898376 441.813202 C 338.80423 442.243073 337.827271 442.516602 337.749115 442.399384 C 337.514648 442.164917 336.029694 437.280182 322.977722 393.317688 C 320.906616 386.322784 318.679169 378.976166 318.053925 376.944122 C 317.42868 374.912079 316.99881 373.192657 317.076996 373.114502 C 317.155121 373.036346 327.549805 383.665497 340.171936 396.717468 C 352.83316 409.76944 364.204742 421.570923 365.494324 422.899567 L 367.838989 425.322388 L 366.822968 425.791321 C 366.236816 426.06488 365.924194 426.455627 366.041412 426.807343 C 366.197723 427.19812 366.940216 426.963654 369.245819 425.713165 C 373.544342 423.3685 374.912048 422.352478 374.36499 422.039856 C 374.091461 421.883545 373.466217 422.000793 372.958191 422.274323 C 371.785858 422.860474 375.029297 426.06488 343.884338 393.708496 C 331.379425 380.695587 320.203217 369.167664 319.109039 368.034393 L 317.116058 366.002319 L 315.826477 366.783905 Z"/>
        <path id="path19" fill="#ffffff" stroke="none" d="M 242.125839 384.603363 C 241.93045 385.228607 239.781174 394.216492 231.926529 426.924591 C 230.51973 432.825317 228.292313 442.164917 227.002731 447.635803 C 225.713181 453.106689 224.501755 458.264954 224.267288 459.046509 L 223.915588 460.492371 L 221.844482 460.414215 C 217.936691 460.257904 219.499817 461.117615 224.267288 461.742859 C 227.90152 462.211792 228.995697 462.211792 228.995697 461.860107 C 228.995697 461.273926 228.096909 460.922241 226.49472 460.922241 C 225.791336 460.922241 225.127014 460.844086 225.009766 460.726837 C 224.892532 460.609619 225.166077 458.890198 225.63501 456.897217 C 226.143021 454.904266 229.933563 438.999603 234.075821 421.492767 C 239.116837 400.507996 241.774139 389.957001 241.969513 390.425964 C 242.243057 391.129333 259.476349 459.906219 259.476349 460.33606 C 259.476349 460.453308 259.046509 460.531464 258.49942 460.531464 C 257.874176 460.531464 257.522461 460.76593 257.522461 461.117615 C 257.522461 461.625641 258.851105 461.703796 267.096527 461.703796 C 275.341919 461.703796 276.670563 461.625641 276.670563 461.117615 C 276.670563 460.726837 276.240723 460.531464 275.302856 460.531464 L 273.93515 460.531464 L 274.013306 422.899567 L 274.130524 385.306763 L 275.420074 385.189514 C 276.20166 385.111389 276.670563 384.876892 276.553345 384.603363 C 276.357971 383.939026 267.213745 383.939026 267.018372 384.603363 C 266.901154 384.955078 267.252838 385.111389 268.034393 385.111389 L 269.245819 385.111389 L 269.245819 422.821411 L 269.245819 460.570526 L 266.822998 460.453308 L 264.361084 460.33606 L 254.826111 422.118011 L 245.3302 383.939026 L 243.845245 383.939026 C 242.751068 383.939026 242.28215 384.13443 242.125839 384.603363 Z"/>
    </g>
</svg>
