<?xml version="1.0" encoding="UTF-8"?>
<!-- Generated by Pixelmator Pro 3.6.13 -->
<svg width="13" height="126" viewBox="0 0 13 126" xmlns="http://www.w3.org/2000/svg">
    <g id="g1">
        <g id="g2">
            <path id="path1" fill="#293b29" stroke="none" d="M 10.382 4 C 10.382 6.209137 8.591139 8 6.382 8 C 4.172861 8 2.382 6.209137 2.382 4 C 2.382 1.790863 4.172861 0 6.382 0 C 8.591139 0 10.382 1.790863 10.382 4 Z"/>
            <path id="path2" fill="none" stroke="#b1ff00" d="M 9.882 4 C 9.882 5.932999 8.314997 7.5 6.382 7.5 C 4.449003 7.5 2.882 5.932999 2.882 4 C 2.882 2.067001 4.449003 0.5 6.382 0.5 C 8.314997 0.5 9.882 2.067001 9.882 4 Z"/>
        </g>
        <g id="g3">
            <path id="path3" fill="#b1ff00" stroke="none" d="M 8.382 4 C 8.382 5.104568 7.486569 6 6.382 6 C 5.277431 6 4.382 5.104568 4.382 4 C 4.382 2.895432 5.277431 2 6.382 2 C 7.486569 2 8.382 2.895432 8.382 4 Z"/>
            <path id="path4" fill="none" stroke="#b1ff00" d="M 7.882 4 C 7.882 4.82843 7.210427 5.5 6.382 5.5 C 5.553573 5.5 4.882 4.82843 4.882 4 C 4.882 3.17157 5.553573 2.5 6.382 2.5 C 7.210427 2.5 7.882 3.17157 7.882 4 Z"/>
        </g>
        <path id="path5" fill="none" stroke="#b1ff00" d="M 6.382 7.610001 L 6.382 54 L 12.382 62 L 0.382 79 L 6.382 86 L 6.382 126"/>
    </g>
</svg>
